<svg xmlns="http://www.w3.org/2000/svg" viewBox="0 0 111.19 142.97"><defs><style>.cls-1{fill:#e0dfe1;}.cls-2{fill:#1982b6;}.cls-3{fill:#fff;}</style></defs><title>Recurso 1</title><g id="Capa_2" data-name="Capa 2"><g id="Capa_1-2" data-name="Capa 1"><path class="cls-1" d="M110.88,29.7c-22.91,0-40.45-6.54-55.29-21C40.75,23.16,23.2,29.7.3,29.7.3,67.28-7.47,121.11,55.59,143c63.06-21.86,55.29-75.69,55.29-113.26Z"/><path class="cls-2" d="M110.88,21C88,21,70.43,14.43,55.59,0,40.75,14.43,23.2,21,.3,21c0,37.58-7.77,91.4,55.29,113.26C118.66,112.38,110.88,58.55,110.88,21Z"/><polygon class="cls-3" points="48.44 97.17 19.65 68.39 32.54 55.5 48.44 71.4 78.65 41.19 91.53 54.08 48.44 97.17 48.44 97.17"/></g></g></svg>